<?xml version="1.0" encoding="iso-8859-1"?>
<!-- Generator: Adobe Illustrator 19.0.0, SVG Export Plug-In . SVG Version: 6.00 Build 0)  -->
<svg xmlns="http://www.w3.org/2000/svg" xmlns:xlink="http://www.w3.org/1999/xlink" version="1.1" id="Capa_1" x="0px" y="0px" viewBox="0 0 512 512" style="enable-background:new 0 0 512 512;" xml:space="preserve" width="512px" height="512px">
<g>
	<g>
		<path d="M276.533,448c0,12.8-8.533,21.333-21.333,21.333S233.867,460.8,233.867,448H191.2c0,36.267,27.733,64,64,64    s64-27.733,64-64H276.533z" fill="#FFFFFF"/>
	</g>
</g>
<g>
	<g>
		<path d="M434.4,386.133c-46.933-23.467-72.533-68.267-72.533-130.133c0-76.8-42.667-128-106.667-128s-106.667,51.2-106.667,128    c0,61.867-25.6,106.667-72.533,130.133c-19.2,10.667-12.8,40.533,8.533,40.533h341.333C447.2,426.667,453.6,396.8,434.4,386.133z     M148.533,384c29.867-36.267,44.8-81.067,42.667-128c0-25.6,6.4-85.333,64-85.333s64,59.733,64,85.333    c-2.133,46.933,12.8,91.733,42.667,128H148.533z" fill="#FFFFFF"/>
	</g>
</g>
<g>
	<g>
		<path d="M419.467,179.2L389.6,209.067c8.533,8.533,8.533,21.333,0,29.867l29.867,29.867    C445.067,243.2,445.067,202.667,419.467,179.2z" fill="#FFFFFF"/>
	</g>
</g>
<g>
	<g>
		<path d="M464.267,132.267L434.4,162.133c34.133,34.133,34.133,87.467,0,121.6l29.867,29.867    C515.467,264.533,515.467,183.467,464.267,132.267z" fill="#FFFFFF"/>
	</g>
</g>
<g>
	<g>
		<path d="M120.8,209.067l-29.867-32c-25.6,25.6-25.6,66.133,0,91.733l29.867-29.867C112.267,230.4,112.267,217.6,120.8,209.067z" fill="#FFFFFF"/>
	</g>
</g>
<g>
	<g>
		<path d="M76,162.133l-29.867-29.867c-49.067,49.067-49.067,130.133,0,181.333L76,283.733C41.867,249.6,41.867,196.267,76,162.133z    " fill="#FFFFFF"/>
	</g>
</g>
<g>
	<g>
		<circle cx="276.533" cy="234.667" r="21.333" fill="#FFFFFF"/>
	</g>
</g>
<g>
	<g>
		<path d="M255.2,0c-36.267,0-64,27.733-64,64s27.733,64,64,64s64-27.733,64-64S291.467,0,255.2,0z M255.2,85.333    c-12.8,0-21.333-8.533-21.333-21.333S242.4,42.667,255.2,42.667S276.533,51.2,276.533,64S268,85.333,255.2,85.333z" fill="#FFFFFF"/>
	</g>
</g>
<g>
</g>
<g>
</g>
<g>
</g>
<g>
</g>
<g>
</g>
<g>
</g>
<g>
</g>
<g>
</g>
<g>
</g>
<g>
</g>
<g>
</g>
<g>
</g>
<g>
</g>
<g>
</g>
<g>
</g>
</svg>
