<?xml version="1.0" encoding="utf-8"?>
<!-- Generator: Adobe Illustrator 16.0.0, SVG Export Plug-In . SVG Version: 6.00 Build 0)  -->
<!DOCTYPE svg PUBLIC "-//W3C//DTD SVG 1.1//EN" "http://www.w3.org/Graphics/SVG/1.1/DTD/svg11.dtd" [
	<!ENTITY ns_extend "http://ns.adobe.com/Extensibility/1.0/">
	<!ENTITY ns_ai "http://ns.adobe.com/AdobeIllustrator/10.0/">
	<!ENTITY ns_graphs "http://ns.adobe.com/Graphs/1.0/">
	<!ENTITY ns_vars "http://ns.adobe.com/Variables/1.0/">
	<!ENTITY ns_imrep "http://ns.adobe.com/ImageReplacement/1.0/">
	<!ENTITY ns_sfw "http://ns.adobe.com/SaveForWeb/1.0/">
	<!ENTITY ns_custom "http://ns.adobe.com/GenericCustomNamespace/1.0/">
	<!ENTITY ns_adobe_xpath "http://ns.adobe.com/XPath/1.0/">
]>
<svg version="1.1" id="Capa_1" xmlns:x="&ns_extend;" xmlns:i="&ns_ai;" xmlns:graph="&ns_graphs;"
	 xmlns="http://www.w3.org/2000/svg" xmlns:xlink="http://www.w3.org/1999/xlink" x="0px" y="0px" width="612px" height="611.847px"
	 viewBox="0 90.153 612 611.847" enable-background="new 0 90.153 612 611.847" xml:space="preserve">
<metadata>
	<sfw  xmlns="&ns_sfw;">
		<slices></slices>
		<sliceSourceBounds  height="612" width="612" y="90.5" x="-0.5" bottomLeftOrigin="true"></sliceSourceBounds>
	</sfw>
</metadata>
<g>
	<g>
		<g>
			<path fill="#2ECC71" d="M458.81,295.4c-9.42-9.933-25.125-10.37-35.073-0.926L265.344,444.688l-75.548-77.567
				c-9.568-9.817-25.257-10.032-35.083-0.463c-9.817,9.561-10.024,25.266-0.464,35.083l92.627,95.1
				c4.854,4.987,11.305,7.501,17.773,7.501c6.137,0,12.273-2.267,17.079-6.807l176.157-167.059
				C467.825,321.047,468.246,305.341,458.81,295.4z"/>
		</g>
	</g>
</g>
<g>
	<g>
		<g>
			<path fill="#2ECC71" d="M306,90C137.27,90,0,227.27,0,396s137.27,306,306,306s306-137.27,306-306S474.73,90,306,90z M306,652.379
				C164.636,652.379,49.621,537.373,49.621,396c0-141.364,115.014-256.379,256.379-256.379
				c141.372,0,256.379,115.014,256.379,256.379C562.379,537.372,447.372,652.379,306,652.379z"/>
		</g>
	</g>
</g>
</svg>
